<svg width="201" height="201" viewBox="0 0 201 201" fill="none" xmlns="http://www.w3.org/2000/svg">
<g clip-path="url(#clip0)">
<g filter="url(#filter0_d)">
<path d="M184.672 100.584L184.22 100.583L184.672 100.582C184.662 93.561 187.478 86.831 192.486 81.9096C194.376 80.1435 195.167 77.4963 194.556 74.9829L194.556 74.9829L194.553 74.9713C190.177 58.8428 181.688 44.127 169.918 32.2643L169.913 32.2597C168.092 30.4778 165.449 29.8228 163.007 30.5484C156.211 32.467 148.927 31.5545 142.814 28.0184C136.701 24.4824 132.278 18.6238 130.553 11.776C129.967 9.28245 128.069 7.30613 125.601 6.6204L125.601 6.62035L125.594 6.61853C109.463 2.41232 92.523 2.41232 76.3921 6.61853L76.3921 6.61848L76.3851 6.6204C73.917 7.30615 72.0188 9.28254 71.4332 11.7762C69.7061 18.6227 65.2831 24.4796 59.1703 28.0142C53.0574 31.5489 45.7746 32.4606 38.979 30.5418C36.5372 29.8161 33.8937 30.4711 32.0731 32.253L32.073 32.253L32.0684 32.2577C20.2971 44.1213 11.8082 58.8383 7.43286 74.968L7.43271 74.9679L7.42992 74.9794C6.81781 77.494 7.60916 80.1431 9.49982 81.9099C14.5076 86.8312 17.3239 93.5611 17.3137 100.582L17.3137 100.584C17.3239 107.605 14.5076 114.335 9.49985 119.256C7.61099 121.021 6.81971 123.667 7.42986 126.18L7.4297 126.18L7.43286 126.192C11.808 142.321 20.2969 157.038 32.0683 168.902L32.0731 168.907C33.8936 170.688 36.5369 171.343 38.9786 170.618C45.7743 168.699 53.0572 169.611 59.1703 173.145C65.2831 176.68 69.7062 182.537 71.4333 189.384C72.0189 191.877 73.917 193.853 76.3851 194.539L76.3921 194.541C92.523 198.747 109.463 198.747 125.594 194.541L125.601 194.539C128.069 193.853 129.967 191.877 130.553 189.383C132.28 182.537 136.703 176.68 142.816 173.145C148.929 169.611 156.212 168.699 163.007 170.618C165.449 171.343 168.092 170.688 169.913 168.907L169.918 168.902C181.69 157.037 190.179 142.319 194.553 126.188L194.553 126.188L194.556 126.177C195.166 123.664 194.375 121.018 192.486 119.253C187.479 114.332 184.663 107.604 184.672 100.584Z" stroke="#FFFBF5" stroke-width="0.905083"/>
<path d="M100.993 113.917C108.357 113.917 114.326 107.947 114.326 100.583C114.326 93.2194 108.357 87.2498 100.993 87.2498C93.6292 87.2498 87.6596 93.2194 87.6596 100.583C87.6596 107.947 93.6292 113.917 100.993 113.917Z" fill="#FFFBF5"/>
<path d="M100.993 63.9164C113.88 63.9164 124.326 53.4697 124.326 40.5831C124.326 27.6964 113.88 17.2497 100.993 17.2497C88.1063 17.2497 77.6596 27.6964 77.6596 40.5831C77.6596 53.4697 88.1063 63.9164 100.993 63.9164Z" fill="#9C9C9C"/>
<path fill-rule="evenodd" clip-rule="evenodd" d="M100.993 17.2498C99.3113 17.2524 97.6349 17.4368 95.993 17.7998C106.681 20.1624 114.29 29.637 114.29 40.5831C114.29 51.5291 106.681 61.0038 95.993 63.3664C104.73 65.2977 113.802 62.0624 119.346 55.0382C124.889 48.014 125.927 38.4384 122.018 30.3894C118.109 22.3404 109.941 17.2359 100.993 17.2498V17.2498Z" fill="#7F7F7F"/>
<path d="M100.993 50.5832C106.516 50.5832 110.993 46.106 110.993 40.5832C110.993 35.0603 106.516 30.5832 100.993 30.5832C95.4701 30.5832 90.993 35.0603 90.993 40.5832C90.993 46.106 95.4701 50.5832 100.993 50.5832Z" fill="#9C9C9C"/>
<path d="M49.033 93.9165C61.9196 93.9165 72.3663 83.4698 72.3663 70.5832C72.3663 57.6965 61.9196 47.2498 49.033 47.2498C36.1463 47.2498 25.6996 57.6965 25.6996 70.5832C25.6996 83.4698 36.1463 93.9165 49.033 93.9165Z" fill="#FFFBF5"/>
<path d="M49.033 153.917C61.9196 153.917 72.3663 143.47 72.3663 130.583C72.3663 117.697 61.9196 107.25 49.033 107.25C36.1463 107.25 25.6996 117.697 25.6996 130.583C25.6996 143.47 36.1463 153.917 49.033 153.917Z" fill="#FFFBF5"/>
<path d="M100.993 183.917C113.88 183.917 124.326 173.47 124.326 160.583C124.326 147.696 113.88 137.25 100.993 137.25C88.1063 137.25 77.6596 147.696 77.6596 160.583C77.6596 173.47 88.1063 183.917 100.993 183.917Z" fill="#FFFBF5"/>
<path d="M152.953 153.917C165.84 153.917 176.286 143.47 176.286 130.583C176.286 117.697 165.84 107.25 152.953 107.25C140.066 107.25 129.62 117.697 129.62 130.583C129.62 143.47 140.066 153.917 152.953 153.917Z" fill="#FFFBF5"/>
<path d="M152.953 93.9165C165.84 93.9165 176.286 83.4698 176.286 70.5832C176.286 57.6965 165.84 47.2498 152.953 47.2498C140.066 47.2498 129.62 57.6965 129.62 70.5832C129.62 83.4698 140.066 93.9165 152.953 93.9165Z" fill="#FFFBF5"/>
<path d="M4.65962 126.946C9.17037 143.56 17.9114 158.72 30.0296 170.946C32.5904 173.471 36.3171 174.413 39.7696 173.406C45.8174 171.696 52.3001 172.506 57.7407 175.653C63.1814 178.8 67.1165 184.015 68.6496 190.11C69.4955 193.616 72.1811 196.384 75.6596 197.336C92.271 201.666 109.715 201.666 126.326 197.336C129.812 196.385 132.503 193.61 133.346 190.096C134.882 184.003 138.818 178.79 144.258 175.644C149.698 172.498 156.179 171.688 162.226 173.396C165.679 174.408 169.408 173.466 171.966 170.936C184.084 158.71 192.826 143.55 197.336 126.936C198.213 123.42 197.134 119.703 194.51 117.203C190.057 112.815 187.551 106.825 187.551 100.573C187.551 94.3217 190.057 88.3314 194.51 83.9431C197.131 81.4417 198.209 77.7258 197.333 74.2098C192.822 57.5965 184.081 42.4366 171.963 30.2098C169.404 27.6817 165.675 26.74 162.223 27.7498C156.183 29.4751 149.701 28.6676 144.27 25.5131C138.811 22.3781 134.866 17.1543 133.343 11.0464C132.493 7.54266 129.805 4.77816 126.326 3.82978C109.712 -0.480775 92.2735 -0.480775 75.6596 3.82978C72.1737 4.78115 69.483 7.55617 68.6396 11.0698C67.1169 17.1749 63.1726 22.3962 57.7163 25.5298C52.2842 28.6866 45.8008 29.4954 39.7596 27.7698C36.3072 26.7563 32.5768 27.6985 30.0196 30.2298C17.9066 42.455 9.16909 57.6112 4.65962 74.2198C3.78285 77.7365 4.8622 81.4531 7.48629 83.9531C11.9522 88.3312 14.4577 94.3292 14.433 100.583C14.4553 106.839 11.9447 112.838 7.47295 117.213C4.85491 119.717 3.78097 123.432 4.65962 126.946V126.946ZM12.163 121.963C17.9064 116.335 21.1297 108.624 21.0996 100.583C21.1268 92.5414 17.9012 84.8303 12.1563 79.2031C11.2438 78.3907 10.8356 77.1522 11.0863 75.9565C15.2952 60.4593 23.452 46.3188 34.7596 34.9164C35.6091 34.1075 36.8322 33.8263 37.9496 34.1831C45.7223 36.4093 54.067 35.3667 61.053 31.2964C68.075 27.2682 73.1494 20.5493 75.103 12.6931C75.3547 11.5409 76.2127 10.6166 77.343 10.2798C92.8518 6.2565 109.131 6.2565 124.64 10.2798C125.771 10.6156 126.631 11.5401 126.883 12.6931C128.838 20.5506 133.913 27.2706 140.936 31.2998C147.924 35.3628 156.265 36.4039 164.036 34.1831C165.154 33.8315 166.374 34.1121 167.226 34.9164C178.531 46.3187 186.685 60.4578 190.893 75.9531C191.144 77.1482 190.737 78.3863 189.826 79.1998C184.103 84.842 180.881 92.5432 180.881 100.58C180.881 108.616 184.103 116.318 189.826 121.96C190.739 122.772 191.147 124.011 190.896 125.206C186.689 140.704 178.533 154.846 167.226 166.25C166.374 167.054 165.154 167.334 164.036 166.983C156.256 164.786 147.917 165.83 140.919 169.878C133.921 173.926 128.858 180.633 126.883 188.473C126.631 189.625 125.773 190.55 124.643 190.886C109.134 194.91 92.8552 194.91 77.3463 190.886C76.2148 190.551 75.3553 189.626 75.103 188.473C71.7533 175.198 59.8307 165.883 46.1396 165.843C43.3702 165.845 40.6143 166.229 37.9496 166.983C36.8319 167.333 35.6122 167.053 34.7596 166.25C23.4549 154.848 15.3005 140.708 11.093 125.213C10.8393 124.018 11.2435 122.779 12.153 121.963H12.163Z" fill="#FFFBF5"/>
<path d="M117.66 100.583C117.66 91.3784 110.198 83.9165 100.993 83.9165C91.7882 83.9165 84.3263 91.3784 84.3263 100.583C84.3263 109.788 91.7882 117.25 100.993 117.25C110.193 117.239 117.649 109.783 117.66 100.583ZM90.993 100.583C90.993 95.0603 95.4701 90.5831 100.993 90.5831C106.516 90.5831 110.993 95.0603 110.993 100.583C110.993 106.106 106.516 110.583 100.993 110.583C95.4701 110.583 90.993 106.106 90.993 100.583Z" fill="#FFFBF5"/>
<path d="M100.993 67.2499C115.721 67.2499 127.66 55.3108 127.66 40.5832C127.66 25.8556 115.721 13.9165 100.993 13.9165C86.2654 13.9165 74.3263 25.8556 74.3263 40.5832C74.3428 55.3039 86.2722 67.2333 100.993 67.2499ZM100.993 20.5832C112.039 20.5832 120.993 29.5375 120.993 40.5832C120.993 51.6289 112.039 60.5832 100.993 60.5832C89.9473 60.5832 80.993 51.6289 80.993 40.5832C81.004 29.5421 89.9518 20.5942 100.993 20.5832Z" fill="#FFFBF5"/>
<path d="M100.993 53.9165C108.357 53.9165 114.326 47.947 114.326 40.5832C114.326 33.2194 108.357 27.2498 100.993 27.2498C93.6292 27.2498 87.6596 33.2194 87.6596 40.5832C87.6596 47.947 93.6292 53.9165 100.993 53.9165ZM100.993 33.9165C104.675 33.9165 107.66 36.9013 107.66 40.5832C107.66 44.2651 104.675 47.2498 100.993 47.2498C97.3111 47.2498 94.3263 44.2651 94.3263 40.5832C94.3263 36.9013 97.3111 33.9165 100.993 33.9165Z" fill="#FFFBF5"/>
<path d="M35.6963 93.6765C39.737 96.0166 44.3236 97.2492 48.993 97.2498C51.3364 97.2485 53.6696 96.9403 55.933 96.3332C68.2215 93.0415 76.4737 81.5278 75.643 68.8332C74.8122 56.1385 65.1299 45.7985 52.5171 44.1365C39.9043 42.4744 27.8739 49.9533 23.7829 61.9994C19.692 74.0455 24.6799 87.3039 35.6963 93.6665V93.6765ZM31.713 60.5832C37.2366 51.0211 49.4647 47.7453 59.0288 53.2654C68.5929 58.7855 71.8732 71.0123 66.3567 80.5785C60.8401 90.1446 48.6145 93.4295 39.0463 87.9165C34.4175 85.294 31.0347 80.9238 29.6561 75.7854C28.2775 70.6471 29.0185 65.1704 31.713 60.5832V60.5832Z" fill="#FFFBF5"/>
<path d="M42.1296 156.346C44.3937 156.949 46.7268 157.253 49.0696 157.25C63.1458 157.249 74.8076 146.328 75.7309 132.282C76.6541 118.237 66.5223 105.883 52.5673 104.04C38.6123 102.197 25.6205 111.496 22.8653 125.3C20.11 139.104 28.5363 152.678 42.1296 156.333V156.346ZM39.0296 113.25C48.5978 107.737 60.8235 111.022 66.34 120.588C71.8566 130.154 68.5762 142.381 59.0121 147.901C49.448 153.421 37.22 150.145 31.6963 140.583C29.0166 135.992 28.2838 130.521 29.6612 125.387C31.0387 120.253 34.4119 115.883 39.0296 113.25V113.25Z" fill="#FFFBF5"/>
<path d="M100.993 133.917C86.2654 133.917 74.3263 145.856 74.3263 160.583C74.3263 175.311 86.2654 187.25 100.993 187.25C115.721 187.25 127.66 175.311 127.66 160.583C127.643 145.862 115.714 133.933 100.993 133.917ZM100.993 180.583C89.9473 180.583 80.993 171.629 80.993 160.583C80.993 149.538 89.9473 140.583 100.993 140.583C112.039 140.583 120.993 149.538 120.993 160.583C120.982 171.624 112.034 180.572 100.993 180.583Z" fill="#FFFBF5"/>
<path d="M166.29 107.49C156.585 101.886 144.413 102.948 135.825 110.146C127.237 117.345 124.065 129.145 127.888 139.679C131.71 150.213 141.71 157.234 152.916 157.25C155.26 157.248 157.593 156.94 159.856 156.333C170.277 153.544 177.991 144.75 179.4 134.055C180.808 123.359 175.633 112.869 166.29 107.477V107.49ZM170.273 140.583C164.749 150.145 152.521 153.421 142.957 147.901C133.393 142.381 130.113 130.154 135.629 120.588C141.146 111.022 153.371 107.737 162.94 113.25C167.568 115.872 170.951 120.243 172.33 125.381C173.708 130.519 172.967 135.996 170.273 140.583V140.583Z" fill="#FFFBF5"/>
<path d="M129.86 83.9164C133.381 90.0557 139.212 94.5315 146.053 96.3464C148.317 96.9489 150.65 97.2526 152.993 97.2497C165.059 97.232 175.609 89.1146 178.719 77.4565C181.829 65.7983 176.724 53.5045 166.27 47.4793C155.816 41.4541 142.619 43.1989 134.091 51.7338C125.562 60.2688 123.827 73.4671 129.86 83.9164V83.9164ZM142.956 53.2497C152.524 47.7367 164.75 51.0216 170.267 60.5878C175.783 70.1539 172.503 82.3808 162.939 87.9009C153.375 93.421 141.147 90.1451 135.623 80.5831C132.937 75.9939 132.2 70.52 133.578 65.3841C134.956 60.2482 138.334 55.8781 142.956 53.2497Z" fill="#FFFBF5"/>
</g>
</g>
<defs>
<filter id="filter0_d" x="4.35826" y="0.596863" width="195.088" height="201.797" filterUnits="userSpaceOnUse" color-interpolation-filters="sRGB">
<feFlood flood-opacity="0" result="BackgroundImageFix"/>
<feColorMatrix in="SourceAlpha" type="matrix" values="0 0 0 0 0 0 0 0 0 0 0 0 0 0 0 0 0 0 127 0" result="hardAlpha"/>
<feOffset dx="0.905083" dy="0.905083"/>
<feGaussianBlur stdDeviation="0.452542"/>
<feComposite in2="hardAlpha" operator="out"/>
<feColorMatrix type="matrix" values="0 0 0 0 0 0 0 0 0 0 0 0 0 0 0 0 0 0 0.85 0"/>
<feBlend mode="normal" in2="BackgroundImageFix" result="effect1_dropShadow"/>
<feBlend mode="normal" in="SourceGraphic" in2="effect1_dropShadow" result="shape"/>
</filter>
<clipPath id="clip0">
<rect width="200" height="200" fill="white" transform="translate(0.992981 0.583069)"/>
</clipPath>
</defs>
</svg>
