<svg width="31" height="83" viewBox="0 0 31 83" fill="none" xmlns="http://www.w3.org/2000/svg">
<path fill-rule="evenodd" clip-rule="evenodd" d="M24.5403 62.1732C22.2219 62.1364 20.2042 63.4697 19.2378 65.4197C18.4884 66.291 17.3396 66.6566 16.1798 66.8926C16.4614 65.4871 16.8057 63.9442 17.9161 63.0418C19.8871 62.1239 21.2707 60.1454 21.3052 57.8272C21.3456 54.6014 18.7689 51.954 15.5447 51.9124C12.3226 51.8683 9.67478 54.4459 9.63018 57.6716C9.60078 59.9872 10.9309 62.0047 12.8809 62.9719C13.8188 63.6827 14.2189 65.3912 14.4995 66.8692C13.3518 66.6046 12.2162 66.2055 11.492 65.3186C10.5785 63.3427 8.59508 61.9579 6.27558 61.9269C3.05338 61.8828 0.404583 64.4629 0.361083 67.6861C0.319883 70.9092 2.89838 73.5593 6.12258 73.6009C8.44098 73.6303 10.6768 72.0864 11.644 70.1391C12.4675 69.2496 13.5128 69.0475 14.7152 68.84C14.8114 70.4944 14.7277 72.2784 14.465 73.3156C13.2374 76.6918 10.2017 80.6981 8.59008 82.0491C10.7789 80.221 19.5549 80.3325 21.6931 82.2225C20.1181 80.83 16.9811 76.5255 16.0553 73.3361C15.7685 72.0603 15.8354 69.685 15.8699 68.8448C17.0915 69.0889 18.1469 69.3146 18.9572 70.2374C19.8739 72.2107 22.0658 73.8132 24.3856 73.8417C27.6106 73.8858 30.2583 71.3082 30.2988 68.0851C30.3436 64.8619 27.7656 62.2118 24.5403 62.1729" fill="#191919"/>
<path d="M17.3621 26.8713C17.5513 26.8713 17.6781 26.7184 17.6151 26.5162L15.4061 14.0591H15.2803L13.1968 26.5655C13.1329 26.7676 13.2608 26.8713 13.3864 26.8713H17.3621ZM18.2452 30.0218C18.1828 29.7704 17.994 29.5653 17.6782 29.5653H13.0076C12.818 29.5653 12.6925 29.7182 12.6308 29.9233L11.6825 35.5139C11.6207 35.869 11.7464 36.1748 11.9975 36.4319L13.3864 37.5988C13.6394 37.8531 14.0173 38.0574 14.0173 38.2111C14.0173 38.3639 13.8918 38.5146 13.5756 38.5146H6.31921C6.06581 38.5146 5.94031 38.3639 5.94031 38.2111C5.94031 38.0582 6.19271 37.8531 6.38301 37.7031L8.14861 36.2796C8.52831 35.9738 8.59121 35.4653 8.65401 35.0063L14.3961 0.837546C14.4601 0.583226 14.5857 0.378906 14.9017 0.378906H17.2355C17.5513 0.378906 17.7409 0.635426 17.8047 0.938996L23.7991 35.0585C23.8616 35.5664 24.0525 36.1268 24.493 36.4328L26.3232 37.7527C26.5127 37.9056 26.702 38.0585 26.702 38.2121C26.702 38.365 26.5765 38.5156 26.2594 38.5156H17.1725C16.8567 38.5156 16.7309 38.365 16.7309 38.2121C16.7309 38.0592 16.9843 37.9063 17.1725 37.7527L18.8764 36.3809C19.1295 36.1759 19.2552 35.8208 19.1914 35.3645L18.2452 30.0228" fill="#191919"/>
</svg>
