<svg width="31" height="82" viewBox="0 0 31 82" fill="none" xmlns="http://www.w3.org/2000/svg">
<path d="M15.6507 56.8971C11.8313 49.0338 1.08118 51.5313 0.736614 59.1396C0.354111 67.6668 11.1692 72.512 14.5285 80.6172L14.5838 80.7288L14.6457 80.6164C18.7198 72.856 29.9236 68.9939 30.3087 60.4692C30.6507 52.8584 20.1652 49.41 15.6507 56.8971" fill="#EB3000"/>
<path d="M18.428 25.4659C18.6055 25.4721 18.7294 25.3328 18.6768 25.1435L17.0133 13.3871L16.8954 13.3829L14.5319 25.045C14.4654 25.235 14.5818 25.3316 14.6998 25.3357L18.428 25.4659ZM19.1529 28.4518C19.1023 28.2138 18.9322 28.0155 18.6361 28.0052L14.2562 27.8522C14.0784 27.846 13.9558 27.9829 13.8912 28.1754L12.8188 33.387C12.7493 33.7181 12.8572 34.0116 13.0842 34.2581L14.3485 35.3955C14.5775 35.6421 14.925 35.8489 14.9201 35.99C14.915 36.1334 14.7923 36.2728 14.4959 36.2625L7.6912 36.0249C7.45363 36.0166 7.34095 35.8689 7.34596 35.7255C7.35088 35.5844 7.59428 35.3982 7.77769 35.2634L9.48001 33.9862C9.84602 33.7117 9.92168 33.2396 9.99555 32.8112L16.4992 0.95507C16.5673 0.718858 16.6918 0.535739 16.9882 0.546091L19.1767 0.622514C19.4729 0.632857 19.6423 0.87728 19.6923 1.16144L24.1962 33.3534C24.2384 33.832 24.3988 34.3635 24.8018 34.6673L26.4749 35.9649C26.6476 36.1146 26.8201 36.2643 26.8152 36.4054C26.8102 36.5488 26.6875 36.6882 26.3901 36.6778L17.8689 36.3803C17.5727 36.3699 17.4598 36.2223 17.4648 36.0788C17.4697 35.9378 17.7123 35.8026 17.8938 35.6653L19.5367 34.4323C19.7805 34.2534 19.9102 33.922 19.8654 33.4895L19.1529 28.4518" fill="#EB3000"/>
</svg>
