<svg width="28" height="82" viewBox="0 0 28 82" fill="none" xmlns="http://www.w3.org/2000/svg">
<path d="M27.8814 64.3538C27.8858 56.3206 17.515 52.2165 14.0175 44.7434L13.9673 44.6393L13.9171 44.7409C10.413 52.2163 0.0422172 56.3114 0.0377808 64.3402C0.0400408 71.0585 8.91657 73.6528 13.2486 68.0325C13.344 67.7514 13.2423 69.8189 12.95 70.9877C11.9096 74.4365 8.17301 79.4569 6.35341 81.0157C8.87028 78.857 19.0507 78.8594 21.5631 81.0199C19.748 79.457 16.1907 74.6114 14.9732 70.9855C14.7228 69.9828 14.5723 68.9689 14.5082 67.9573C18.734 74.0536 27.885 71.2025 27.8873 64.3535" fill="#191919"/>
<path d="M16.1094 22.6317C16.2713 22.6317 16.3792 22.5012 16.324 22.3305L14.4402 11.6941H14.3317L12.5541 22.3726C12.4977 22.5476 12.6043 22.6318 12.716 22.6318L16.1094 22.6317ZM16.8621 25.3234C16.8118 25.1089 16.6474 24.9338 16.3795 24.9338H12.3906C12.2288 24.9338 12.1227 25.0624 12.0694 25.2394L11.2592 30.0119C11.2091 30.315 11.3157 30.5785 11.5316 30.7955L12.7158 31.7895C12.9305 32.0065 13.2536 32.1835 13.2536 32.3121C13.2536 32.4426 13.145 32.5731 12.8771 32.5731H6.68122C6.46409 32.5731 6.35803 32.4426 6.35803 32.3121C6.35803 32.1835 6.57265 32.0065 6.73454 31.8779L8.24418 30.6626C8.56737 30.4016 8.62069 29.9698 8.67585 29.578L13.5768 0.407047C13.627 0.189938 13.7381 0.0198975 14.0085 0.0198975H16.0008C16.2706 0.0198975 16.43 0.237006 16.4858 0.493649L21.6037 29.6203C21.6539 30.0539 21.8208 30.5323 22.1947 30.7957L23.7598 31.9225C23.9192 32.053 24.0829 32.1835 24.0829 32.3121C24.0829 32.4426 23.9743 32.5731 23.7045 32.5731H15.9481C15.6782 32.5731 15.5716 32.4426 15.5716 32.3121C15.5716 32.1835 15.7862 32.053 15.9481 31.9225L17.4025 30.7493C17.617 30.5786 17.7256 30.273 17.6704 29.8815L16.8624 25.3237" fill="#191919"/>
</svg>
